<mxfile host="app.diagrams.net" agent="Mozilla/5.0 (Windows NT 10.0; Win64; x64) AppleWebKit/537.36 (KHTML, like Gecko) Chrome/124.0.0.0 Safari/537.36 SLBrowser/9.0.5.8121 SLBChan/33 SLBVPV/64-bit" version="24.7.7">
  <diagram name="第 1 页" id="_Khk3AFxsx5nVBd9rEiY">
    <mxGraphModel dx="2345" dy="1805" grid="1" gridSize="10" guides="1" tooltips="1" connect="1" arrows="1" fold="1" page="1" pageScale="1" pageWidth="827" pageHeight="1169" math="0" shadow="0">
      <root>
        <mxCell id="0" />
        <mxCell id="1" parent="0" />
        <mxCell id="oBVKEtkIVzsdpsA8WE52-1" value="&lt;font style=&quot;font-size: 18px;&quot;&gt;在对应组件的DB中的固定卸数表和字段表里配置需要卸数的表&lt;/font&gt;" style="rounded=1;whiteSpace=wrap;html=1;" vertex="1" parent="1">
          <mxGeometry x="-30" y="100" width="200" height="130" as="geometry" />
        </mxCell>
        <mxCell id="oBVKEtkIVzsdpsA8WE52-5" value="&lt;font style=&quot;font-size: 18px;&quot;&gt;前提条件[DB]&lt;/font&gt;" style="text;html=1;align=center;verticalAlign=middle;resizable=0;points=[];autosize=1;strokeColor=none;fillColor=none;" vertex="1" parent="1">
          <mxGeometry x="5" y="60" width="130" height="40" as="geometry" />
        </mxCell>
        <mxCell id="oBVKEtkIVzsdpsA8WE52-6" value="&lt;font style=&quot;font-size: 18px;&quot;&gt;perl脚本&lt;/font&gt;" style="rounded=0;whiteSpace=wrap;html=1;" vertex="1" parent="1">
          <mxGeometry x="390" y="135" width="120" height="60" as="geometry" />
        </mxCell>
        <mxCell id="oBVKEtkIVzsdpsA8WE52-8" value="" style="shape=flexArrow;endArrow=classic;html=1;rounded=0;entryX=1;entryY=0.5;entryDx=0;entryDy=0;exitX=0;exitY=0.5;exitDx=0;exitDy=0;" edge="1" parent="1" source="oBVKEtkIVzsdpsA8WE52-6" target="oBVKEtkIVzsdpsA8WE52-1">
          <mxGeometry width="50" height="50" relative="1" as="geometry">
            <mxPoint x="300" y="430" as="sourcePoint" />
            <mxPoint x="390" y="340" as="targetPoint" />
          </mxGeometry>
        </mxCell>
        <mxCell id="oBVKEtkIVzsdpsA8WE52-14" value="" style="group" vertex="1" connectable="0" parent="1">
          <mxGeometry x="-30" y="371" width="215" height="214" as="geometry" />
        </mxCell>
        <mxCell id="oBVKEtkIVzsdpsA8WE52-27" value="" style="whiteSpace=wrap;html=1;aspect=fixed;" vertex="1" parent="oBVKEtkIVzsdpsA8WE52-14">
          <mxGeometry x="-45" y="-46" width="260" height="260" as="geometry" />
        </mxCell>
        <mxCell id="oBVKEtkIVzsdpsA8WE52-9" value="卸数文件.dat" style="shape=note;whiteSpace=wrap;html=1;backgroundOutline=1;darkOpacity=0.05;" vertex="1" parent="oBVKEtkIVzsdpsA8WE52-14">
          <mxGeometry width="80" height="100" as="geometry" />
        </mxCell>
        <mxCell id="oBVKEtkIVzsdpsA8WE52-12" value="卸数文件.dat" style="shape=note;whiteSpace=wrap;html=1;backgroundOutline=1;darkOpacity=0.05;" vertex="1" parent="oBVKEtkIVzsdpsA8WE52-14">
          <mxGeometry x="90" width="80" height="100" as="geometry" />
        </mxCell>
        <mxCell id="oBVKEtkIVzsdpsA8WE52-13" value="卸数文件.dat" style="shape=note;whiteSpace=wrap;html=1;backgroundOutline=1;darkOpacity=0.05;" vertex="1" parent="oBVKEtkIVzsdpsA8WE52-14">
          <mxGeometry x="40" y="60" width="80" height="100" as="geometry" />
        </mxCell>
        <mxCell id="oBVKEtkIVzsdpsA8WE52-28" value="&lt;font style=&quot;font-size: 18px;&quot;&gt;服务器&lt;/font&gt;" style="text;html=1;align=center;verticalAlign=middle;whiteSpace=wrap;rounded=0;" vertex="1" parent="oBVKEtkIVzsdpsA8WE52-14">
          <mxGeometry x="30" y="170" width="60" height="30" as="geometry" />
        </mxCell>
        <mxCell id="oBVKEtkIVzsdpsA8WE52-15" value="" style="endArrow=classic;html=1;rounded=0;exitX=0.5;exitY=1;exitDx=0;exitDy=0;entryX=0.695;entryY=0.078;entryDx=0;entryDy=0;entryPerimeter=0;" edge="1" parent="1" source="oBVKEtkIVzsdpsA8WE52-1" target="oBVKEtkIVzsdpsA8WE52-9">
          <mxGeometry width="50" height="50" relative="1" as="geometry">
            <mxPoint x="230" y="340" as="sourcePoint" />
            <mxPoint x="280" y="290" as="targetPoint" />
          </mxGeometry>
        </mxCell>
        <mxCell id="oBVKEtkIVzsdpsA8WE52-16" value="" style="shape=curlyBracket;whiteSpace=wrap;html=1;rounded=1;labelPosition=left;verticalLabelPosition=middle;align=right;verticalAlign=middle;" vertex="1" parent="1">
          <mxGeometry x="530" y="-25" width="20" height="380" as="geometry" />
        </mxCell>
        <mxCell id="oBVKEtkIVzsdpsA8WE52-17" value="Container" style="swimlane;" vertex="1" parent="1">
          <mxGeometry x="560" y="10" width="260" height="320" as="geometry" />
        </mxCell>
        <mxCell id="oBVKEtkIVzsdpsA8WE52-18" value="1.根据默认配置库，连接对应数据库" style="text;html=1;align=center;verticalAlign=middle;resizable=0;points=[];autosize=1;strokeColor=none;fillColor=none;" vertex="1" parent="oBVKEtkIVzsdpsA8WE52-17">
          <mxGeometry y="70" width="210" height="30" as="geometry" />
        </mxCell>
        <mxCell id="oBVKEtkIVzsdpsA8WE52-19" value="2.找到卸数配置表和卸数字段表&lt;br&gt;（卸数表名-字段名-分隔符-文件名&amp;amp;路径-增量）" style="text;html=1;align=left;verticalAlign=middle;resizable=0;points=[];autosize=1;strokeColor=none;fillColor=none;" vertex="1" parent="oBVKEtkIVzsdpsA8WE52-17">
          <mxGeometry x="10" y="170" width="280" height="40" as="geometry" />
        </mxCell>
        <mxCell id="oBVKEtkIVzsdpsA8WE52-20" value="3.利用驱动读表并进行拼接后写入文件中" style="text;html=1;align=center;verticalAlign=middle;resizable=0;points=[];autosize=1;strokeColor=none;fillColor=none;" vertex="1" parent="oBVKEtkIVzsdpsA8WE52-17">
          <mxGeometry y="270" width="240" height="30" as="geometry" />
        </mxCell>
        <mxCell id="oBVKEtkIVzsdpsA8WE52-24" value="" style="endArrow=classic;html=1;rounded=0;exitX=0.475;exitY=0.867;exitDx=0;exitDy=0;exitPerimeter=0;entryX=0.321;entryY=-0.05;entryDx=0;entryDy=0;entryPerimeter=0;" edge="1" parent="oBVKEtkIVzsdpsA8WE52-17" source="oBVKEtkIVzsdpsA8WE52-18" target="oBVKEtkIVzsdpsA8WE52-19">
          <mxGeometry width="50" height="50" relative="1" as="geometry">
            <mxPoint x="380" y="90" as="sourcePoint" />
            <mxPoint x="100" y="160" as="targetPoint" />
          </mxGeometry>
        </mxCell>
        <mxCell id="oBVKEtkIVzsdpsA8WE52-25" value="" style="endArrow=classic;html=1;rounded=0;exitX=0.335;exitY=1.01;exitDx=0;exitDy=0;exitPerimeter=0;" edge="1" parent="oBVKEtkIVzsdpsA8WE52-17" source="oBVKEtkIVzsdpsA8WE52-19">
          <mxGeometry width="50" height="50" relative="1" as="geometry">
            <mxPoint x="110" y="106" as="sourcePoint" />
            <mxPoint x="104" y="272" as="targetPoint" />
          </mxGeometry>
        </mxCell>
        <mxCell id="oBVKEtkIVzsdpsA8WE52-30" value="&lt;font style=&quot;font-size: 18px;&quot;&gt;数据仓库&lt;/font&gt;" style="shape=cylinder3;whiteSpace=wrap;html=1;boundedLbl=1;backgroundOutline=1;size=15;" vertex="1" parent="1">
          <mxGeometry x="470" y="410" width="326" height="129" as="geometry" />
        </mxCell>
        <mxCell id="oBVKEtkIVzsdpsA8WE52-31" value="" style="endArrow=classic;html=1;rounded=0;entryX=0;entryY=0.5;entryDx=0;entryDy=0;entryPerimeter=0;" edge="1" parent="1" source="oBVKEtkIVzsdpsA8WE52-27" target="oBVKEtkIVzsdpsA8WE52-30">
          <mxGeometry width="50" height="50" relative="1" as="geometry">
            <mxPoint x="270" y="540" as="sourcePoint" />
            <mxPoint x="320" y="490" as="targetPoint" />
          </mxGeometry>
        </mxCell>
      </root>
    </mxGraphModel>
  </diagram>
</mxfile>
